PathFileType	4	(X/Y/Z)	Formatted/subject19/trials/walk2/markers.trc
DataRate	CameraRate	NumFrames	NumMarkers	Units	OrigDataRate	OrigDataStartFrame	OrigNumFrames
200.00000000000426	200.00000000000426	4	64	m	200.00000000000426	0	213
Frame#	Time	CLAV			C7			RACR			RASH			RPSH			RLEL			RMEL			RUA1			RUA2			RUA3			RFAsuperior			RFAradius			RFAulna			RASI			RPSI			RCAL			RTOE			RMT5			RTH1			RTH2			RTH3			RTB1			RTB2			RTB3			RLFC			RMFC			RLMAL			RMMAL			RHJC			RKJC			REJC			RAJC			RSJC			LACR			LASH			LPSH			LLEL			LMEL			LUA1			LUA2			LUA3			LFAsuperior			LFAradius			LFAulna			LASI			LPSI			LCAL			LTOE			LMT5			LTH1			LTH2			LTH3			LTB1			LTB2			LTB3			LLFC			LMFC			LLMAL			LMMAL			LHJC			LKJC			LEJC			LAJC			LSJC			
		X1	Y1	Z1	X2	Y2	Z2	X3	Y3	Z3	X4	Y4	Z4	X5	Y5	Z5	X6	Y6	Z6	X7	Y7	Z7	X8	Y8	Z8	X9	Y9	Z9	X10	Y10	Z10	X11	Y11	Z11	X12	Y12	Z12	X13	Y13	Z13	X14	Y14	Z14	X15	Y15	Z15	X16	Y16	Z16	X17	Y17	Z17	X18	Y18	Z18	X19	Y19	Z19	X20	Y20	Z20	X21	Y21	Z21	X22	Y22	Z22	X23	Y23	Z23	X24	Y24	Z24	X25	Y25	Z25	X26	Y26	Z26	X27	Y27	Z27	X28	Y28	Z28	X29	Y29	Z29	X30	Y30	Z30	X31	Y31	Z31	X32	Y32	Z32	X33	Y33	Z33	X34	Y34	Z34	X35	Y35	Z35	X36	Y36	Z36	X37	Y37	Z37	X38	Y38	Z38	X39	Y39	Z39	X40	Y40	Z40	X41	Y41	Z41	X42	Y42	Z42	X43	Y43	Z43	X44	Y44	Z44	X45	Y45	Z45	X46	Y46	Z46	X47	Y47	Z47	X48	Y48	Z48	X49	Y49	Z49	X50	Y50	Z50	X51	Y51	Z51	X52	Y52	Z52	X53	Y53	Z53	X54	Y54	Z54	X55	Y55	Z55	X56	Y56	Z56	X57	Y57	Z57	X58	Y58	Z58	X59	Y59	Z59	X60	Y60	Z60	X61	Y61	Z61	X62	Y62	Z62	X63	Y63	Z63	X64	Y64	Z64	

1	2.72	0.9830013187348162	1.400088410130197	-0.4801892761814012	0.873645448478958	1.480885725175157	-0.519499660279103	0.8963523216143333	1.432260967839508	-0.3245262759317179	0.9546374607493733	1.391803336718417	-0.3007030377414204	0.8605515874507285	1.410558549057368	-0.3083840527623786	0.7550642660711304	1.152141854056438	-0.2846966311577712	0.7497003591813929	1.153280949232981	-0.3485342856039798	0.8653762665769991	1.347821158320881	-0.2869862955208274	0.8704559354809284	1.255702809058267	-0.3000294046122262	0.7865208671128749	1.2561015737207	-0.2989414675455185	0.7960454158255229	1.066488225466145	-0.3185625313442383	0.7797839727370555	0.875990736561324	-0.2699596084797951	0.7133714394062105	0.8933795105799294	-0.2832732415602844	0.9578657617034781	0.9725646281861265	-0.3848954293287507	0.7905993651641804	1.000141396624711	-0.4623142245383436	1.140675489135888	0.05799589248162599	-0.4377353805282905	1.338763790054634	0.1299112099845233	-0.4514702905519302	1.335745784572971	0.09524005827303868	-0.346424032870745	0.9192329883838429	0.8161476044284082	-0.327459052442635	1.03303427343456	0.7045612031722689	-0.3548472036965338	1.006554331215802	0.5965060811283551	-0.3639037814789072	1.14548727016644	0.4081743469146257	-0.4157184774666833	1.1174281725155	0.3358995152876852	-0.3557496712598873	1.196103536081753	0.2350937072554921	-0.4148091518672729	1.048506415246811	0.5089738357255205	-0.3702040188279054	1.042889000100467	0.5063214784068828	-0.4832937290219275	1.210392778900568	0.0971502078923504	-0.3685484143918536	1.216100709381603	0.09923215408727726	-0.4697726265663963	0.8875451992696807	0.8666796861950563	-0.4273136727367187	1.046125669974587	0.5078424622956463	-0.4283343075579666	0.7556913607062503	1.14523900456595	-0.3159369675826313	1.206519609520655	0.08169774175302169	-0.4266531220654191	0.9105629334026231	1.400589215938599	-0.3043012092279883	0.9215147375960633	1.442060316937753	-0.6955364460670234	0.9874340943706393	1.394491128143916	-0.6958708389138554	0.8858213512081029	1.414746757469983	-0.7041663351364902	0.9022448789387282	1.1266947296134	-0.7814491560740178	0.8695503551931991	1.122590016650734	-0.7253666667498502	0.9156570318782965	1.347902325487037	-0.7483120422937548	0.8655649776314486	1.277633187227972	-0.7360018260360549	0.9426183586384741	1.236784471787331	-0.7559231831366161	0.9614347156309486	1.114953166655141	-0.7235107195377012	1.140026110435664	1.015283663201061	-0.7156796199907316	1.101115807122841	0.9637008560160022	-0.7400250663788136	0.9621960776112748	0.9671881274828925	-0.6201788163042967	0.7919876947615048	1.000148439244583	-0.5598035197526922	0.5305202304186281	0.08247207189575921	-0.5687883009128671	0.7337885411566906	0.04583292701552395	-0.5383613158411382	0.7197972058254724	0.01278994115311618	-0.6452228916489002	0.8837902117704196	0.7927581519097375	-0.6840348805254548	0.9164177464324812	0.6740673670684525	-0.6584055012275158	0.8015157873374006	0.585778522435209	-0.6523655128462609	0.7759147541001565	0.3456734547457766	-0.593980059475126	0.7035368222181753	0.2706484356027433	-0.6429553023832909	0.6887119339885496	0.1725610126602483	-0.5782376659498385	0.7858908120582458	0.4827786908321636	-0.630746032636191	0.7706044827234094	0.4889165446672641	-0.5186901189600004	0.6167401645826527	0.07345249538038517	-0.6303918104427771	0.6122562421105381	0.07555848955391559	-0.5291064939921837	0.8915487491804709	0.8614181481297231	-0.5798337278460888	0.7790206242556367	0.4852515937275504	-0.5728355863465217	0.8901523104308056	1.114188445563267	-0.7535163658561433	0.5975086688805644	0.06766183398546249	-0.5735890374617596	0.9433595670238892	1.403277007364097	-0.6994690104004232	
2	2.725	0.9894643142095048	1.399381874863302	-0.4792403735726373	0.880062379904976	1.480195077459501	-0.5183895987549171	0.9027895997823301	1.431183463479944	-0.3235154729988917	0.96109762556185	1.390711462016079	-0.299772784334869	0.8670010094167901	1.409426778377759	-0.3074194371667621	0.7621079287001061	1.150609296594061	-0.2844561802739495	0.7567120601383917	1.151935219600566	-0.3482875337828799	0.8719624724550737	1.346551539277974	-0.2861844407593259	0.8772508476390422	1.254486466562821	-0.2995175377618918	0.7933155863830603	1.254686073659118	-0.2983904187956337	0.8030694049593872	1.065064110588347	-0.318691966310246	0.7868780617516672	0.8743985993987395	-0.2707286973509222	0.720446555656807	0.8918329376261162	-0.2838871820522324	0.9649639011587107	0.971796666215101	-0.3850744742846087	0.7974324749193888	0.999457901895374	-0.461887706760015	1.144976538757565	0.05705864831100983	-0.4382380242960023	1.343719949069178	0.1269995597843231	-0.4526866008960438	1.340722668819414	0.09239560587802859	-0.3476175947331153	0.9262916816778248	0.8153940650906375	-0.3274386532433521	1.040353785123786	0.7041147078552593	-0.3549905944519349	1.0141351272365	0.5960038100827501	-0.3641412284394567	1.152633104023861	0.407054035125562	-0.4163715712441838	1.124198141688828	0.3350168197561545	-0.3562940006842594	1.201904460880099	0.2335852387271237	-0.4155646371125551	1.05629916338139	0.5085811774196549	-0.3705476068771187	1.050634590949758	0.5060264274895769	-0.4836372119520396	1.215263358059323	0.09554805515231846	-0.3693053339882736	1.22067468513577	0.09755650877646943	-0.4705473201106481	0.8944324215897498	0.8659464606764472	-0.4272284087689904	1.054011082401781	0.5074882809191329	-0.4287117133921857	0.7627367616379805	1.143805516558811	-0.3157182074807117	1.211090724642055	0.08010951204956673	-0.4273930067071273	0.9170180657286967	1.399478651965708	-0.3033548588539693	0.9279622051191001	1.441759564774509	-0.6945036221176762	0.9939096934763936	1.394230145019944	-0.6949327792131225	0.892285348039729	1.414442686690558	-0.703191164271567	0.9084006226735016	1.126481107115096	-0.7805592903547439	0.8757212383845316	1.122394323485792	-0.7244666687159822	0.9220533772068933	1.34766526369577	-0.7473640226242113	0.8718928087581684	1.277444555741823	-0.735056437077105	0.9488969446679532	1.236521709067194	-0.7550160267353279	0.9676566701296286	1.114510553858693	-0.7227465849495575	1.145873343851696	1.014154051488584	-0.7151563295736485	1.106724513383933	0.9627110474928846	-0.739415036747086	0.9684369851492171	0.9663989371171964	-0.6203715902689281	0.7984668255186532	0.9994563683049672	-0.5593814004357887	0.5314037174998504	0.08470529616610886	-0.5687470369817627	0.7343292723756134	0.04579436106777386	-0.5388573595570654	0.7197244816942326	0.01306831257278055	-0.6457343851623297	0.8894096540424193	0.7921976831887931	-0.6840304770689677	0.9217211992363912	0.6733509976316374	-0.658725282210632	0.8065286132843207	0.5854684671265487	-0.6523072822181671	0.7794570649523294	0.34533757543312	-0.5941474069927537	0.7061808422633002	0.271144980257469	-0.6430549416716637	0.6904939863346523	0.173119275943339	-0.5784470771283599	0.7906273816574366	0.4824929251042216	-0.6307736883416297	0.7758612968500759	0.4885153340551959	-0.5186417739107727	0.6173650984980614	0.07484510725246873	-0.6305704126751234	0.6131527858294739	0.0768440822932025	-0.5292712684464561	0.8978793091012488	0.8606705131176539	-0.5797615617197713	0.7840693813507208	0.4848435564586989	-0.5728026219046746	0.8963047539969135	1.113979417294933	-0.752625872450442	0.5982142320262669	0.06916895940113604	-0.5737288533755017	0.9498301336432403	1.402997334969573	-0.6985148537322228	
3	2.73	0.9959179531892506	1.398757378207494	-0.4782618105302751	0.8864556742010301	1.479556469836914	-0.5172712330633643	0.9091836073321578	1.430171496385509	-0.3224914723842813	0.9675209851763398	1.389701210383193	-0.2988180625126794	0.873410122391467	1.408352058004874	-0.3064468844977351	0.7693314505641412	1.149019863972873	-0.2841453333877175	0.7638914142491585	1.150520178125407	-0.3479690767946338	0.8785590463513667	1.345316182814294	-0.2853526708585197	0.8841328409706581	1.253308908623611	-0.2989655438600237	0.8001980922605939	1.253237121686882	-0.2977860830166699	0.8102884438890713	1.063592024570366	-0.3187695748996064	0.7942391270090169	0.8727577737655974	-0.2714337526420896	0.7277784283437558	0.8902185550439909	-0.2844084788883762	0.9721954777505615	0.9710502880305907	-0.385286802576611	0.804371733038224	0.9988259943692175	-0.4614175865511658	1.148361532964114	0.056250341838613	-0.4386113973376472	1.348111893744492	0.1230600032408373	-0.4539638602411852	1.345026713757008	0.08857187754658538	-0.3488593207509595	0.9334291856472238	0.8146787446200029	-0.327422549273053	1.047813517079788	0.703761439659495	-0.3550982504677876	1.021908691364513	0.5955850556764055	-0.3643680020268354	1.159816653793439	0.4058024152783046	-0.4170182396820435	1.130844917270545	0.3340900795669651	-0.3568085946471487	1.207305659607644	0.2318368992179746	-0.4162870613783633	1.064326248674367	0.5082923112131417	-0.3708712263346091	1.058667821714061	0.5058459620926045	-0.4839635359067252	1.219400888466954	0.09369199228183417	-0.3700016702154942	1.224492698927888	0.09559605756986483	-0.4712622454770469	0.9014221731531207	0.8652485653870861	-0.4271561787040422	1.062190811251217	0.5072388003891417	-0.4290795260458433	0.7699624189281127	1.142312011338588	-0.3154280409218895	1.214874905864421	0.07826921258915831	-0.4280670691437359	0.9234347515047662	1.39843819995157	-0.3023917841715787	0.9344250543818944	1.441516638526235	-0.6934522221479957	1.000412953658148	1.394044149927439	-0.6939632152965625	0.8987732218504849	1.414187065358855	-0.7022023430404226	0.9144841636088062	1.126311584046512	-0.7795290317707891	0.881863084223152	1.12226382824646	-0.7233996543205965	0.9284309080987743	1.347480392638148	-0.7463537238951623	0.878202726560433	1.277318193037994	-0.7339883431379192	0.9551368447018913	1.236305606519433	-0.7540335610051835	0.9738581847985516	1.114025974172717	-0.7219043937841199	1.151565303242972	1.012739121719672	-0.7147366946046708	1.112082657415404	0.961490334559331	-0.7388651208664626	0.9747082477579	0.965656552360061	-0.6205962247950262	0.80500968766717	0.9988263864732545	-0.5589146798606454	0.5323779607914185	0.0871141653440049	-0.5686693980204502	0.7348989059952362	0.04576063045879643	-0.539320012768528	0.7196558059079792	0.01337131387371817	-0.6462104839717805	0.8950665096970565	0.7916931955834289	-0.6840367512598228	0.9271293600548323	0.6727071738384262	-0.6590723012599831	0.8116965400828886	0.5851715685428478	-0.6522426871370733	0.7831719708888388	0.3450084299429108	-0.5943012909168885	0.7089689939226613	0.2716917572060555	-0.6431323941912648	0.6923808664561468	0.1737439967407073	-0.5786315216155334	0.7955786655717193	0.4822117930530819	-0.6307949404110721	0.7813658177397381	0.4881024369992801	-0.5185845657817889	0.6180550779433812	0.0763505056671005	-0.6307148551788696	0.6141220850636735	0.0782406440612346	-0.5294023927443254	0.9042453272106973	0.8599744048675293	-0.57970221253399	0.7893558178914364	0.4844232833081863	-0.5727594536621071	0.9024051764290403	1.113824487218412	-0.7515817849522937	0.5989880431135594	0.07079624996389083	-0.5738330862977525	0.9563267199865739	1.402781139495816	-0.6975369369554618	
4	2.735	1.002367112841052	1.398193447078669	-0.4772553232538307	0.8928331383327072	1.478956462002946	-0.5161380009464205	0.9155531509305561	1.429209240492586	-0.3214495197849436	0.9739251851491522	1.388752462539982	-0.2978385313119962	0.8797973962493394	1.407321091665064	-0.3054590893786626	0.7766776699718685	1.147403422577131	-0.2837857292251386	0.7711960136724616	1.14906454060391	-0.3476019285106868	0.8851651497971178	1.344112174464486	-0.2844955094756388	0.8910774371783242	1.25216557503891	-0.2983729629094398	0.8071442317291014	1.251774466861371	-0.2971472469231873	0.8176755355163003	1.062110185478035	-0.3187848208538245	0.8018665355966061	0.8711083255875952	-0.2720479300579995	0.7353680054795412	0.8885580929699423	-0.2848423812640651	0.9795738046223407	0.9703423929821422	-0.3855432265420575	0.8114134520386033	0.9982060490984098	-0.4608951203948949	1.150955789061228	0.05531527527273341	-0.4388535744723016	1.351758101762627	0.1186405742930787	-0.4552173553168627	1.348574657550256	0.0843086381150417	-0.3500646225320034	0.9407215605343238	0.8140095375699919	-0.3274256179003512	1.055444863738039	0.703469217007379	-0.3552063573710774	1.029870621102558	0.5952234983272029	-0.3645840352284021	1.166991498271285	0.4043960731875107	-0.4176627639666023	1.137356333504051	0.3331016654923297	-0.3572799319183446	1.212295090123926	0.2298485369276154	-0.416967620873316	1.072554610991874	0.5080670739408017	-0.3711718289233256	1.066907839179053	0.5057152400077982	-0.4842667260199033	1.222835059824278	0.09159988928547341	-0.3706117391268936	1.227556079246042	0.09335843859909987	-0.4718929100355211	0.9085640450088395	0.8645799914512561	-0.4271105006567734	1.07060067592366	0.5070407468147318	-0.4294313802103392	0.7773162228715575	1.140786882353624	-0.3150877234806677	1.217889756463795	0.076188481034762	-0.4286459503739312	0.9298310224390348	1.397450936853627	-0.3014083817383261	0.9408951914613648	1.441315333864058	-0.6923793571526475	1.006932309316466	1.393912189530283	-0.6929642599790631	0.9052742973046686	1.413966308985372	-0.7011944626910629	0.920496897045652	1.126183617593146	-0.7784134418234897	0.8879518071319842	1.122191115067878	-0.7222360156956827	0.9347955632881542	1.347339219958326	-0.7452999654953463	0.8844890612347059	1.277248391293335	-0.7328485116503834	0.9613375924889518	1.236126423699667	-0.7529976697415526	0.9800060083668707	1.113508464782213	-0.7210034127756497	1.157091466904863	1.011103871188178	-0.7143504493441676	1.117210922764648	0.9600966401746351	-0.7383359250374545	0.9810020980129369	0.9650010568643874	-0.6208629254387399	0.8116030169947389	0.9982283216984233	-0.5583941140262058	0.5334615954364289	0.08972406577413507	-0.5685571161841886	0.7355052881806471	0.04573740893270349	-0.5397516522821832	0.7195955952066634	0.01370537630452099	-0.6466526500247326	0.9007917329033693	0.7912542694923946	-0.6840666664908349	0.9326584590462039	0.6721414071123641	-0.6594585115795991	0.8170252400671748	0.5849064543690257	-0.6521864115650454	0.7870565488244707	0.3447101707448839	-0.5944552130077885	0.7119016105701308	0.2723095155792001	-0.643197118247583	0.6943804110667331	0.1744572378323142	-0.5787981149652206	0.8007375992060166	0.4819555067946109	-0.6308247113520108	0.787109019680291	0.487700472763033	-0.5185343284593844	0.6188223337660026	0.07798765056084506	-0.6308277628874206	0.6151797638778669	0.07976811543060192	-0.5295024564227997	0.9106833932555175	0.8593392978593908	-0.5796690890710345	0.7948704326450234	0.4840135047570968	-0.5727223713241736	0.908441353813087	1.113718322193163	-0.75044634667265	0.599844834102748	0.07256243153849501	-0.5739036141475948	0.9628381466063491	1.402610663843928	-0.696534110405393	
